<?xml version="1.0" encoding="UTF-8"?>
<svg version="1.1" xmlns="http://www.w3.org/2000/svg" width="180" height="180">
<path d="M0 0 C7.55869109 4.93946111 12.77368181 10.42193896 15.45703125 19.18359375 C17.33439598 28.92157915 17.13544016 39.30359561 12 48 C10.37271406 50.36495528 8.69440602 52.6817828 7 55 C8.06541016 56.44632813 8.06541016 56.44632813 9.15234375 57.921875 C10.08105461 59.19767982 11.00942212 60.47373464 11.9375 61.75 C12.64036133 62.70132813 12.64036133 62.70132813 13.35742188 63.671875 C13.80537109 64.290625 14.25332031 64.909375 14.71484375 65.546875 C15.12855225 66.11245117 15.54226074 66.67802734 15.96850586 67.26074219 C17.10444061 69.17610293 17.6496593 70.80449289 18 73 C15.66953964 75.33046036 11.23972205 74.68773601 8.1640625 74.69140625 C3.14169612 73.59392619 1.23931009 70.47204075 -1.57421875 66.3828125 C-3 64 -3 64 -4 62 C-5.00160156 62.23783203 -5.00160156 62.23783203 -6.0234375 62.48046875 C-17.86756197 64.54775032 -29.14705394 63.52553042 -39.3125 56.8125 C-46.61516189 49.17017942 -50.95017977 40.59541625 -51.3125 29.875 C-50.4656133 19.37360488 -47.57878719 11.09703195 -39.8125 3.6875 C-28.49017933 -5.62692143 -12.93180384 -7.55093341 0 0 Z M-33.41015625 15.50390625 C-37.51391454 21.60806285 -37.60362012 29.70519187 -36.4375 36.75 C-34.77546563 42.93276787 -31.1611243 46.71163744 -25.75 49.9375 C-19.58394448 51.68454906 -13.76629119 52.07024661 -7.75 49.5625 C-2.67317752 46.68940979 0.88890786 41.50265022 2.640625 35.98046875 C3.96053681 28.70660693 3.20651721 22.21073039 -1 16 C-6.86546023 10.37057439 -12.00331755 8.56394683 -20.07421875 8.66015625 C-25.45750062 9.28545067 -29.70532039 11.55276552 -33.41015625 15.50390625 Z " fill="#005ABA" transform="translate(144,64)"/>
<path d="M0 0 C12 0 12 0 15.078125 2.45703125 C15.79484375 3.56433594 16.5115625 4.67164062 17.25 5.8125 C17.64638672 6.39547852 18.04277344 6.97845703 18.45117188 7.57910156 C19.26417456 8.77779272 20.06122174 9.98746366 20.84179688 11.20751953 C22.62461666 13.96668119 24.56205716 16.59752788 26.5 19.25 C27.1290625 20.14203125 27.758125 21.0340625 28.40625 21.953125 C29.84224097 24.10069502 29.84224097 24.10069502 32 25 C32.25523438 24.44570312 32.51046875 23.89140625 32.7734375 23.3203125 C34.74028627 19.59958585 37.28047509 16.33457272 39.80078125 12.97265625 C41.22937742 11.04164083 42.60598479 9.07065877 43.91796875 7.05859375 C44.54316406 6.15238281 45.16835937 5.24617188 45.8125 4.3125 C46.62654297 3.06919922 46.62654297 3.06919922 47.45703125 1.80078125 C50 0 50 0 61 0 C61 21.45 61 42.9 61 65 C57.04 65 53.08 65 49 65 C48.505 44.21 48.505 44.21 48 23 C44.04 28.28 40.08 33.56 36 39 C34.02 41.475 34.02 41.475 32 44 C31.01 44 30.02 44 29 44 C27.60546875 42.59472656 27.60546875 42.59472656 26.1875 40.640625 C25.41019531 39.58488281 25.41019531 39.58488281 24.6171875 38.5078125 C24.08351563 37.76273438 23.54984375 37.01765625 23 36.25 C22.46632813 35.52039063 21.93265625 34.79078125 21.3828125 34.0390625 C20.38230423 32.6702079 19.3857696 31.29843371 18.39453125 29.92285156 C16.9512354 27.93276085 15.47501967 25.96669289 14 24 C13.67 37.53 13.34 51.06 13 65 C8.71 65 4.42 65 0 65 C0 43.55 0 22.1 0 0 Z " fill="#E63B47" transform="translate(23,61)"/>
</svg>
